<svg width="39" height="30" viewBox="0 0 39 30" fill="none" xmlns="http://www.w3.org/2000/svg">
<path d="M34.8425 4.83076H28.9147L27.5025 1.16656C27.4049 0.915824 27.2261 0.699093 26.9905 0.545971C26.7549 0.392848 26.474 0.3108 26.1862 0.311036H12.8137C12.2253 0.311036 11.6979 0.654051 11.5017 1.16656L10.0852 4.83076H4.15736C2.23082 4.83076 0.67041 6.27546 0.67041 8.05914V26.4609C0.67041 28.2446 2.23082 29.6893 4.15736 29.6893H34.8425C36.7691 29.6893 38.3295 28.2446 38.3295 26.4609V8.05914C38.3295 6.27546 36.7691 4.83076 34.8425 4.83076ZM19.4999 23.2325C15.6469 23.2325 12.526 20.3431 12.526 16.7758C12.526 13.2084 15.6469 10.319 19.4999 10.319C23.353 10.319 26.4738 13.2084 26.4738 16.7758C26.4738 20.3431 23.353 23.2325 19.4999 23.2325ZM15.3156 16.7758C15.3156 17.8032 15.7564 18.7886 16.5412 19.5151C17.3259 20.2417 18.3902 20.6498 19.4999 20.6498C20.6097 20.6498 21.674 20.2417 22.4587 19.5151C23.2434 18.7886 23.6843 17.8032 23.6843 16.7758C23.6843 15.7483 23.2434 14.7629 22.4587 14.0364C21.674 13.3099 20.6097 12.9017 19.4999 12.9017C18.3902 12.9017 17.3259 13.3099 16.5412 14.0364C15.7564 14.7629 15.3156 15.7483 15.3156 16.7758Z" fill="#57B99D"/>
</svg>
