<svg width="31" height="31" viewBox="0 0 31 31" fill="none" xmlns="http://www.w3.org/2000/svg">
<path d="M26.0275 9.37865C24.9729 7.03789 22.7607 5.52026 20.3685 5.52026C17.9764 5.52026 16.433 6.57489 15.5327 7.70668C14.6324 6.57489 13.0891 5.52026 10.6969 5.52026C8.30467 5.52026 6.09253 7.03789 5.03791 9.37865C3.95756 11.8223 4.42057 14.5231 6.29831 16.6324C10.7998 21.6997 14.7868 25.2752 14.8382 25.3009C15.044 25.481 15.2755 25.5581 15.5327 25.5581C15.7899 25.5581 16.0214 25.481 16.2272 25.3009C16.2787 25.2752 20.2399 21.674 24.7671 16.6324C26.6706 14.5231 27.1336 11.8223 26.0275 9.37865ZM23.2495 15.2691C19.9055 18.9989 16.8703 21.9312 15.5584 23.1402C14.2466 21.9055 11.2113 18.9989 7.86739 15.2434C6.52982 13.7258 6.19542 11.8994 6.94138 10.176C7.63589 8.60696 9.15352 7.52663 10.7226 7.52663C13.7836 7.52663 14.4781 9.81594 14.5553 10.0989C14.6581 10.5619 15.0697 10.8706 15.5327 10.8706C15.9957 10.8706 16.4073 10.5362 16.5359 10.0989C16.6131 9.84166 17.3076 7.52663 20.3685 7.52663C21.9119 7.52663 23.4295 8.58124 24.1498 10.176C24.9214 11.9252 24.587 13.7515 23.2495 15.2691ZM22.9922 12.2853C23.018 12.774 22.6579 13.2113 22.1434 13.237C22.1177 13.237 22.092 13.237 22.092 13.237C21.6289 13.237 21.2174 12.8769 21.1917 12.3882C21.0888 10.922 20.137 10.6905 19.957 10.6648C19.4683 10.5876 19.1339 10.1503 19.1853 9.66159C19.2625 9.17286 19.7255 8.83847 20.2142 8.88991C21.1145 9.01852 22.8379 9.89311 22.9922 12.2853ZM21.7576 13.7772C21.9633 13.983 22.0662 14.2402 22.0662 14.4974C22.0662 14.7804 21.9633 15.0376 21.7576 15.2176C21.5775 15.4234 21.2946 15.5263 21.0373 15.5263C20.7801 15.5263 20.4972 15.4234 20.3171 15.2176C20.1113 15.0376 20.0084 14.7547 20.0084 14.4974C20.0084 14.2402 20.1113 13.9573 20.3171 13.7772C20.4972 13.5971 20.7801 13.4685 21.0373 13.4685C21.2946 13.4943 21.5518 13.5971 21.7576 13.7772Z" fill="#57B99D"/>
</svg>
