<svg width="34" height="37" viewBox="0 0 34 37" fill="none" xmlns="http://www.w3.org/2000/svg">
<rect width="32" height="32" rx="16" fill="#57B99D"/>
<rect x="21" y="24" width="12" height="12" rx="6" fill="#EDA345" stroke="#F8F5F2" stroke-width="2"/>
<path d="M14.455 8.7066C14.5795 8.39886 14.7931 8.13532 15.0684 7.94975C15.3436 7.76418 15.668 7.66504 16 7.66504C16.332 7.66504 16.6564 7.76418 16.9317 7.94975C17.2069 8.13532 17.4205 8.39886 17.545 8.7066C18.7773 9.04551 19.8643 9.77957 20.639 10.796C21.4137 11.8125 21.8333 13.0552 21.8333 14.3333V18.2474L23.36 20.5374C23.4437 20.6629 23.4918 20.8088 23.4991 20.9595C23.5065 21.1102 23.4727 21.26 23.4016 21.3931C23.3304 21.5261 23.2244 21.6373 23.095 21.7148C22.9656 21.7924 22.8175 21.8333 22.6667 21.8333H18.8875C18.7872 22.5275 18.4401 23.1624 17.9098 23.6216C17.3795 24.0807 16.7015 24.3335 16 24.3335C15.2985 24.3335 14.6206 24.0807 14.0903 23.6216C13.56 23.1624 13.2128 22.5275 13.1125 21.8333H9.33334C9.18247 21.8333 9.03442 21.7924 8.905 21.7148C8.77557 21.6373 8.66962 21.5261 8.59844 21.3931C8.52727 21.26 8.49354 21.1102 8.50086 20.9595C8.50818 20.8088 8.55627 20.6629 8.64 20.5374L10.1667 18.2474V14.3333C10.1667 11.6466 11.9833 9.38327 14.455 8.7066ZM14.8217 21.8333C14.9077 22.0771 15.0673 22.2883 15.2784 22.4377C15.4896 22.5871 15.7418 22.6673 16.0004 22.6673C16.259 22.6673 16.5113 22.5871 16.7224 22.4377C16.9335 22.2883 17.0931 22.0771 17.1792 21.8333H14.8208H14.8217ZM16 10.1666C14.8949 10.1666 13.8351 10.6056 13.0537 11.387C12.2723 12.1684 11.8333 13.2282 11.8333 14.3333V18.4999C11.8334 18.6645 11.7847 18.8255 11.6933 18.9624L10.8908 20.1666H21.1083L20.3058 18.9624C20.2148 18.8254 20.1664 18.6645 20.1667 18.4999V14.3333C20.1667 13.2282 19.7277 12.1684 18.9463 11.387C18.1649 10.6056 17.1051 10.1666 16 10.1666Z" fill="#E6F9F1"/>
</svg>
