<svg width="25" height="25" viewBox="0 0 25 25" fill="none" xmlns="http://www.w3.org/2000/svg">
<path fill-rule="evenodd" clip-rule="evenodd" d="M9.81132 3.46306C10.8786 3.46306 11.2107 3.47122 11.5086 3.54484C11.8019 3.61734 12.0816 3.73684 12.3368 3.89871C12.5959 4.06308 12.8313 4.29743 13.5691 5.0687L19.7518 11.5324C20.3344 12.1416 20.7214 12.5475 20.9943 12.8833C21.2582 13.2081 21.3478 13.3881 21.3882 13.5193C21.4984 13.8774 21.4942 14.2609 21.376 14.6164C21.3328 14.7467 21.2392 14.9247 20.9681 15.2435C20.6878 15.5732 20.2919 15.9704 19.6958 16.5664L16.5603 19.7019C15.9643 20.298 15.5671 20.6939 15.2374 20.9742C14.9186 21.2453 14.7406 21.3389 14.6103 21.3821C14.2548 21.5003 13.8712 21.5045 13.5132 21.3943C13.382 21.3539 13.202 21.2643 12.8772 21.0004C12.5414 20.7275 12.1355 20.3405 11.5263 19.7579L5.0626 13.5752C4.29132 12.8374 4.05698 12.602 3.8926 12.3429C3.73073 12.0877 3.61123 11.808 3.53874 11.5147C3.46512 11.2168 3.45695 10.8847 3.45695 9.81743V7.06306C3.45695 6.20318 3.45789 5.63044 3.49384 5.19038C3.52865 4.76434 3.59021 4.56938 3.65314 4.44588C3.82572 4.10718 4.10108 3.83182 4.43977 3.65925C4.56328 3.59632 4.75823 3.53476 5.18428 3.49995C5.62434 3.46399 6.19708 3.46306 7.05696 3.46306H9.81132ZM12.0844 1.21494C11.4672 1.0624 10.824 1.06266 9.94311 1.06302L9.81132 1.06306H7.05696L7.00876 1.06306C6.20972 1.06304 5.53829 1.06302 4.98884 1.10792C4.41438 1.15485 3.86842 1.25678 3.35019 1.52083C2.55991 1.9235 1.9174 2.56602 1.51473 3.3563C1.25068 3.87453 1.14875 4.42048 1.10181 4.99495C1.05692 5.54439 1.05694 6.21582 1.05695 7.01487L1.05695 7.06306V9.81743L1.05692 9.94921C1.05656 10.8301 1.0563 11.4733 1.20884 12.0905C1.34347 12.6353 1.5654 13.1547 1.86602 13.6285C2.20661 14.1654 2.6716 14.6098 3.30841 15.2184L3.40366 15.3095L9.8674 21.4922L9.90177 21.5251C10.4675 22.0662 10.9434 22.5214 11.3636 22.863C11.8034 23.2204 12.26 23.5197 12.8071 23.6881C13.6426 23.9453 14.5376 23.9353 15.3672 23.6597C15.9104 23.4792 16.3602 23.1697 16.792 22.8026C17.2045 22.4519 17.6702 21.9862 18.2237 21.4327L18.2574 21.399L21.3929 18.2635L21.4265 18.2298C21.9801 17.6763 22.4458 17.2106 22.7965 16.7981C23.1636 16.3663 23.473 15.9165 23.6536 15.3733C23.9292 14.5437 23.9392 13.6487 23.682 12.8132C23.5136 12.2661 23.2143 11.8095 22.8568 11.3697C22.5154 10.9495 22.0602 10.4736 21.5191 9.90795L21.4861 9.87351L15.3034 3.40977L15.2123 3.31451L15.2123 3.3145C14.6037 2.6777 14.1593 2.21271 13.6224 1.87212C13.1486 1.57151 12.6292 1.34957 12.0844 1.21494ZM7.57259 8.95091C7.57259 8.19304 8.18697 7.57866 8.94484 7.57866C9.70272 7.57866 10.3171 8.19304 10.3171 8.95091C10.3171 9.70879 9.70272 10.3232 8.94484 10.3232C8.18697 10.3232 7.57259 9.70879 7.57259 8.95091ZM8.94484 5.17866C6.86148 5.17866 5.17259 6.86756 5.17259 8.95091C5.17259 11.0343 6.86148 12.7232 8.94484 12.7232C11.0282 12.7232 12.7171 11.0343 12.7171 8.95091C12.7171 6.86756 11.0282 5.17866 8.94484 5.17866Z" fill="#57B99D"/>
</svg>
